<svg width="120" height="70" viewBox="0 0 120 70" fill="none" xmlns="http://www.w3.org/2000/svg">
<path opacity="0.5" d="M27.9955 38.9435C27.0287 37.7406 26.457 36.6895 26.269 35.7863C25.4058 32.4471 30.589 32.4471 29.7258 35.7863C29.5186 36.7046 28.9469 37.7595 27.9993 38.9435H27.9955ZM33.2976 41.7211C31.6824 42.4155 30.0864 41.3075 28.7206 39.8048C32.7068 34.868 30.4892 32.2156 27.9993 32.2156C25.893 32.2156 24.7305 33.9801 25.1871 36.0292C25.4518 37.1372 26.1539 38.397 27.2742 39.8048C26.0273 41.1709 24.9531 41.8046 24.0054 41.8881C22.0871 42.1689 20.587 40.3285 21.27 38.4312C21.8493 36.9437 25.5554 29.658 25.7165 29.2634C26.3227 28.1212 26.6987 27.0853 27.9955 27.0853C29.2347 27.0853 29.6605 28.0681 30.3128 29.3582C31.6939 32.0372 33.7427 36.0937 34.7172 38.4312C35.2236 39.6872 34.6634 41.1367 33.2976 41.7173V41.7211ZM35.1008 36.5566C30.1555 26.148 29.8831 26 27.9993 26C26.2537 26 25.5094 27.2029 24.7497 28.7625C20.6753 36.8185 20.284 37.9606 20.2494 38.0593C19.2826 40.689 21.2738 42.9999 23.687 42.9999C24.5195 42.9999 26.012 42.7684 27.9993 40.6321C30.2514 43.053 31.8858 42.9999 32.3116 42.9999C34.7248 43.0037 36.7198 40.689 35.7492 38.0593C35.7492 37.9113 35.1046 36.5832 35.1046 36.5566H35.1008Z" fill="white"/>
<path opacity="0.5" d="M48.4986 37.7703H44.5028L43.7522 40H41.3827L45.2534 29.1531H47.8143L51.6556 40H49.1977L48.4986 37.7703ZM47.8658 35.9011L46.5118 31.633L45.1136 35.9011H47.8658ZM52.7117 29.1531H54.9635V40H52.7117V29.1531ZM61.5388 35.7466H59.1987V40H56.9837V29.1531H62.3041C63.0645 29.1678 63.6483 29.261 64.0555 29.4327C64.4676 29.6044 64.8159 29.8571 65.1004 30.1907C65.3359 30.4654 65.5223 30.7696 65.6597 31.1032C65.7971 31.4368 65.8658 31.817 65.8658 32.2438C65.8658 32.7589 65.7357 33.2667 65.4757 33.7671C65.2157 34.2626 64.7865 34.6133 64.1879 34.8194C64.6883 35.0205 65.0416 35.3075 65.2476 35.6804C65.4586 36.0483 65.564 36.6125 65.564 37.3729V38.1014C65.564 38.5969 65.5837 38.933 65.6229 39.1096C65.6818 39.3892 65.8191 39.5953 66.035 39.7277V40H63.5404C63.4717 39.7596 63.4226 39.5658 63.3932 39.4187C63.3343 39.1145 63.3024 38.803 63.2975 38.4841L63.2828 37.4759C63.273 36.7842 63.1454 36.323 62.9001 36.0925C62.6598 35.8619 62.206 35.7466 61.5388 35.7466ZM62.9149 33.7744C63.3662 33.5684 63.5919 33.1612 63.5919 32.5529C63.5919 31.8955 63.3736 31.454 62.9369 31.2283C62.6916 31.1007 62.3237 31.037 61.8331 31.037H59.1987V33.951H61.7669C62.2771 33.951 62.6598 33.8922 62.9149 33.7744ZM72.625 40H67.7093V29.1531H72.9782C74.3077 29.1727 75.2496 29.5578 75.804 30.3084C76.1376 30.7696 76.3044 31.3215 76.3044 31.9642C76.3044 32.6265 76.1376 33.1587 75.804 33.561C75.6176 33.7867 75.3428 33.9927 74.9798 34.1792C75.5342 34.3803 75.9512 34.6992 76.2308 35.1358C76.5153 35.5724 76.6576 36.1023 76.6576 36.7253C76.6576 37.368 76.4957 37.9444 76.1719 38.4546C75.9659 38.7932 75.7083 39.0777 75.3993 39.3083C75.0509 39.5732 74.6388 39.7547 74.163 39.8528C73.692 39.9509 73.1793 40 72.625 40ZM72.5735 35.2241H69.8728V38.1161H72.5367C73.0125 38.1161 73.3829 38.0524 73.6479 37.9248C74.1286 37.6893 74.369 37.238 74.369 36.5708C74.369 36.0066 74.136 35.619 73.6699 35.4081C73.4099 35.2904 73.0444 35.229 72.5735 35.2241ZM73.6994 33.1563C73.9937 32.9797 74.1409 32.6633 74.1409 32.207C74.1409 31.7017 73.9447 31.3681 73.5522 31.2062C73.2137 31.0934 72.782 31.037 72.257 31.037H69.8728V33.4286H72.5367C73.0125 33.4286 73.4001 33.3378 73.6994 33.1563ZM87.1846 40H84.918L80.488 32.2953V40H78.376V29.1531H80.7529L85.0726 36.7253V29.1531H87.1846V40ZM94.1057 40H89.19V29.1531H94.4589C95.7884 29.1727 96.7303 29.5578 97.2847 30.3084C97.6183 30.7696 97.7851 31.3215 97.7851 31.9642C97.7851 32.6265 97.6183 33.1587 97.2847 33.561C97.0983 33.7867 96.8235 33.9927 96.4605 34.1792C97.0149 34.3803 97.4319 34.6992 97.7115 35.1358C97.996 35.5724 98.1383 36.1023 98.1383 36.7253C98.1383 37.368 97.9764 37.9444 97.6526 38.4546C97.4466 38.7932 97.189 39.0777 96.8799 39.3083C96.5316 39.5732 96.1195 39.7547 95.6437 39.8528C95.1727 39.9509 94.66 40 94.1057 40ZM94.0542 35.2241H91.3535V38.1161H94.0174C94.4932 38.1161 94.8636 38.0524 95.1286 37.9248C95.6093 37.6893 95.8497 37.238 95.8497 36.5708C95.8497 36.0066 95.6167 35.619 95.1506 35.4081C94.8906 35.2904 94.5251 35.229 94.0542 35.2241ZM95.1801 33.1563C95.4744 32.9797 95.6216 32.6633 95.6216 32.207C95.6216 31.7017 95.4254 31.3681 95.0329 31.2062C94.6944 31.0934 94.2627 31.037 93.7377 31.037H91.3535V33.4286H94.0174C94.4932 33.4286 94.8808 33.3378 95.1801 33.1563Z" fill="white"/>
</svg>
