<svg width="120" height="70" viewBox="0 0 120 70" fill="none" xmlns="http://www.w3.org/2000/svg">
<g opacity="0.5">
<path d="M23 34.652C23 38.3607 20.4186 41 16.6066 41C12.9516 41 10 38.096 10 34.5C10 30.904 12.9516 28 16.6066 28C18.3861 28 19.8832 28.6421 21.0367 29.701L19.2385 31.402C16.8863 29.169 12.5121 30.8464 12.5121 34.5C12.5121 36.7671 14.3529 38.6044 16.6066 38.6044C19.2225 38.6044 20.2029 36.7593 20.3574 35.8026H16.6066V33.5669H22.8961C22.9574 33.8998 23 34.2196 23 34.652Z" fill="white"/>
<path d="M35.4986 37.7703H31.5028L30.7522 40H28.3827L32.2534 29.1531H34.8143L38.6556 40H36.1977L35.4986 37.7703ZM34.8658 35.9011L33.5118 31.633L32.1136 35.9011H34.8658ZM39.8883 29.1531H42.1548V38.0499H47.5268V40H39.8883V29.1531ZM53.5575 36.0998H51.2542V40H49.0024V29.1531H53.7267C54.8158 29.1531 55.6842 29.4327 56.3318 29.992C56.9793 30.5513 57.3031 31.4172 57.3031 32.5897C57.3031 33.8701 56.9793 34.7752 56.3318 35.3051C55.6842 35.8349 54.7594 36.0998 53.5575 36.0998ZM54.6172 33.8407C54.9115 33.5807 55.0587 33.1686 55.0587 32.6044C55.0587 32.0402 54.9091 31.6379 54.6098 31.3975C54.3154 31.1571 53.9009 31.037 53.3662 31.037H51.2542V34.2307H53.3662C53.9009 34.2307 54.3179 34.1007 54.6172 33.8407ZM65.3207 40V35.1579H61.082V40H58.8376V29.1531H61.082V33.2888H65.3207V29.1531H67.5725V40H65.3207ZM75.9433 37.7703H71.9475L71.1969 40H68.8273L72.6981 29.1531H75.2589L79.1002 40H76.6424L75.9433 37.7703ZM75.3105 35.9011L73.9564 31.633L72.5583 35.9011H75.3105ZM85.2855 40H80.3698V29.1531H85.6387C86.9682 29.1727 87.9101 29.5578 88.4645 30.3084C88.7981 30.7696 88.9649 31.3215 88.9649 31.9642C88.9649 32.6265 88.7981 33.1587 88.4645 33.561C88.2781 33.7867 88.0033 33.9927 87.6403 34.1792C88.1947 34.3803 88.6117 34.6992 88.8913 35.1358C89.1758 35.5724 89.3181 36.1023 89.3181 36.7253C89.3181 37.368 89.1562 37.9444 88.8324 38.4546C88.6264 38.7932 88.3688 39.0777 88.0598 39.3083C87.7114 39.5732 87.2993 39.7547 86.8235 39.8528C86.3525 39.9509 85.8398 40 85.2855 40ZM85.234 35.2241H82.5333V38.1161H85.1972C85.673 38.1161 86.0434 38.0524 86.3084 37.9248C86.7891 37.6893 87.0295 37.238 87.0295 36.5708C87.0295 36.0066 86.7965 35.619 86.3304 35.4081C86.0704 35.2904 85.7049 35.229 85.234 35.2241ZM86.3599 33.1563C86.6542 32.9797 86.8014 32.6633 86.8014 32.207C86.8014 31.7017 86.6052 31.3681 86.2127 31.2062C85.8742 31.0934 85.4425 31.037 84.9175 31.037H82.5333V33.4286H85.1972C85.673 33.4286 86.0606 33.3378 86.3599 33.1563ZM98.6235 35.2609H93.3546V38.0499H99.3594V40H91.1396V29.1531H99.0945V31.0737H93.3546V33.3771H98.6235V35.2609ZM108.856 29.1531V31.0737H105.611V40H103.33V31.0737H100.07V29.1531H108.856Z" fill="white"/>
</g>
</svg>
