<svg width="120" height="70" viewBox="0 0 120 70" fill="none" xmlns="http://www.w3.org/2000/svg">
<g opacity="0.5">
<path d="M19.9203 32.7076C19.8973 33.4719 20.2681 33.8134 20.2779 34.0265C20.2747 34.0704 20.2582 34.111 20.2353 34.1482C20.2123 34.1854 20.1795 34.2158 20.1434 34.2361L19.7234 34.5405C19.6676 34.5811 19.6053 34.6014 19.5396 34.6047C19.5265 34.6047 19.2706 34.6656 18.867 33.739C18.6209 34.0569 18.3091 34.3105 17.9515 34.483C17.5938 34.6555 17.2066 34.7434 16.8129 34.7366C16.278 34.7671 14.831 34.4255 14.9064 32.8361C14.8539 31.5409 16.0253 30.736 17.2329 30.807C17.4658 30.807 17.9416 30.8206 18.7751 31.0201V30.4925C18.8637 29.5964 18.2927 28.9031 17.3051 29.008C17.2263 29.008 16.6685 28.991 15.8022 29.3495C15.5594 29.4645 15.5299 29.4442 15.4478 29.4442C15.205 29.4442 15.3035 28.7171 15.3527 28.6258C15.5233 28.4094 16.5307 28.0036 17.5151 28.0103C18.1746 27.9495 18.8309 28.1591 19.3428 28.5954C19.5495 28.8355 19.7103 29.1162 19.8087 29.4205C19.9071 29.7249 19.9465 30.0461 19.9236 30.3674V32.711L19.9203 32.7076ZM17.0852 33.8033C18.1484 33.7864 18.6012 33.1269 18.7029 32.7718C18.7849 32.4303 18.7718 32.2172 18.7718 31.8452C18.4535 31.7675 17.9974 31.6795 17.4724 31.6795C16.9736 31.6423 16.068 31.8689 16.1041 32.7718C16.0647 33.34 16.4683 33.8337 17.0885 33.8033H17.0852ZM22.693 34.5845C22.4338 34.6081 22.3156 34.4187 22.2763 34.2328L20.6422 28.663C20.6093 28.5683 20.5897 28.4736 20.5798 28.3722C20.5733 28.3316 20.5831 28.291 20.6061 28.2572C20.629 28.2234 20.6651 28.2031 20.7045 28.1963C20.7111 28.1963 20.6356 28.1963 21.433 28.1963C21.7217 28.1659 21.8136 28.3992 21.8464 28.548L23.0211 33.3095L24.1105 28.548C24.1269 28.4398 24.2057 28.1727 24.5305 28.2031H25.0949C25.1671 28.1963 25.4591 28.1862 25.5116 28.5548L26.6043 33.3738L27.8151 28.5514C27.8315 28.477 27.9037 28.1659 28.2318 28.1997H28.8783C28.9078 28.1963 29.0817 28.1727 29.0522 28.4905C29.039 28.5514 29.1637 28.1287 27.3196 34.2361C27.2835 34.4221 27.1621 34.6115 26.9029 34.5878H26.2893C25.9316 34.6284 25.8791 34.2598 25.8726 34.226L24.7832 29.5896L23.7069 34.2226C23.7003 34.2598 23.6511 34.625 23.2902 34.5845H22.6897H22.693ZM31.6674 34.7738C31.4738 34.7738 30.555 34.7637 29.7839 34.3579C29.7084 34.3241 29.6428 34.27 29.5969 34.1956C29.5509 34.1212 29.528 34.04 29.528 33.9554V33.5936C29.528 33.3062 29.7314 33.3603 29.8167 33.3941C30.1448 33.5327 30.3581 33.6342 30.7617 33.7187C31.966 33.9724 32.4943 33.6409 32.6222 33.5665C33.0554 33.3028 33.0882 32.6974 32.7961 32.3863C32.4516 32.0887 32.2875 32.0786 31.0538 31.6762C30.9028 31.6322 29.6198 31.2162 29.6166 29.9041C29.5969 28.9505 30.4369 28.0036 31.8971 28.0103C32.3138 28.0103 33.4196 28.149 33.7215 28.5379C33.7674 28.6089 33.7871 28.6934 33.7838 28.7746V29.1162C33.7838 29.265 33.7313 29.3427 33.623 29.3427C33.3704 29.3123 32.9208 28.964 32.0086 28.9775C31.7822 28.964 30.6994 29.008 30.7486 29.823C30.7355 30.4655 31.6214 30.7056 31.7232 30.7326C32.9208 31.1046 33.3179 31.1655 33.7937 31.7336C34.3548 32.4844 34.0529 33.367 33.9348 33.6071C33.308 34.8753 31.6903 34.7705 31.6608 34.7705L31.6674 34.7738ZM32.9865 38.3213C30.6895 40.0696 27.3524 40.9996 24.5043 40.9996C20.6618 41.0267 16.9474 39.5692 14.0927 36.9179C13.8794 36.7183 14.0664 36.4444 14.3289 36.5966C17.4954 38.4633 21.0786 39.444 24.7274 39.4406C27.4509 39.4271 30.1448 38.8556 32.6551 37.7667C33.0422 37.5976 33.3704 38.0305 32.9865 38.3213ZM33.9446 37.1952C33.6493 36.8063 31.9988 37.0125 31.2605 37.1039C31.0374 37.1309 31.0013 36.9314 31.2014 36.7826C32.5172 35.8289 34.6763 36.1029 34.9224 36.4241C35.1685 36.7454 34.8535 38.974 33.623 40.0392C33.4327 40.2049 33.2523 40.117 33.3376 39.9006C33.6132 39.1803 34.2366 37.5841 33.9413 37.1952H33.9446Z" fill="white"/>
<path d="M47.4986 37.7703H43.5028L42.7522 40H40.3827L44.2534 29.1531H46.8143L50.6556 40H48.1977L47.4986 37.7703ZM46.8658 35.9011L45.5118 31.633L44.1136 35.9011H46.8658ZM53.9635 40H51.8515V29.1531H55.1483L57.1204 37.682L59.0779 29.1531H62.3379V40H60.2259V32.6633C60.2259 32.4523 60.2283 32.1579 60.2332 31.7802C60.2381 31.3975 60.2406 31.1032 60.2406 30.8971L58.1875 40H55.9872L53.9488 30.8971C53.9488 31.1032 53.9512 31.3975 53.9562 31.7802C53.9611 32.1579 53.9635 32.4523 53.9635 32.6633V40ZM70.6424 37.7703H66.6466L65.896 40H63.5264L67.3972 29.1531H69.9581L73.7994 40H71.3415L70.6424 37.7703ZM70.0096 35.9011L68.6555 31.633L67.2574 35.9011H70.0096ZM82.7074 40H74.2668V38.0867L79.8669 31.0737H74.4066V29.1531H82.6926V30.9707L77.019 38.0867H82.7074V40ZM88.8926 40.3017C87.3423 40.3017 86.1576 39.8798 85.3383 39.036C84.2394 38.0009 83.6899 36.5095 83.6899 34.5618C83.6899 32.5749 84.2394 31.0836 85.3383 30.0877C86.1576 29.2439 87.3423 28.822 88.8926 28.822C90.4429 28.822 91.6276 29.2439 92.4469 30.0877C93.5409 31.0836 94.0879 32.5749 94.0879 34.5618C94.0879 36.5095 93.5409 38.0009 92.4469 39.036C91.6276 39.8798 90.4429 40.3017 88.8926 40.3017ZM91.034 37.3876C91.5589 36.7253 91.8214 35.7834 91.8214 34.5618C91.8214 33.3452 91.5565 32.4057 91.0267 31.7434C90.5017 31.0762 89.7904 30.7426 88.8926 30.7426C87.9948 30.7426 87.2786 31.0737 86.7438 31.736C86.2091 32.3983 85.9417 33.3403 85.9417 34.5618C85.9417 35.7834 86.2091 36.7253 86.7438 37.3876C87.2786 38.0499 87.9948 38.3811 88.8926 38.3811C89.7904 38.3811 90.5042 38.0499 91.034 37.3876ZM104.446 40H102.179L97.7491 32.2953V40H95.6371V29.1531H98.014L102.334 36.7253V29.1531H104.446V40Z" fill="white"/>
</g>
</svg>
