<svg width="66" height="66" viewBox="0 0 66 66" fill="none" xmlns="http://www.w3.org/2000/svg">
<path d="M31.1143 16.2435C32.0102 15.9188 32.9898 15.9188 33.8922 16.2435L46.2672 20.6981C47.9043 21.289 49 22.8539 49 24.6136V40.3864C49 42.1396 47.9043 43.711 46.2607 44.3019L33.8857 48.7565C32.9898 49.0812 32.0102 49.0812 31.1078 48.7565L18.7328 44.3019C17.0957 43.7045 16 42.1396 16 40.3799V24.6136C16 22.8604 17.0957 21.289 18.7393 20.6981L31.1143 16.2435ZM32.5 20.1591L21.3045 24.1851L32.5 28.211L43.6955 24.1851L32.5 20.1591ZM34.5625 44.0942L44.875 40.3864V28.1786L34.5625 31.8864V44.0942Z" fill="white"/>
</svg>
