<svg width="66" height="66" viewBox="0 0 66 66" fill="none" xmlns="http://www.w3.org/2000/svg">
<path d="M27.3722 43.3767C27.3722 43.5174 27.2145 43.6298 27.0157 43.6298C26.7895 43.6509 26.6319 43.5384 26.6319 43.3767C26.6319 43.2361 26.7895 43.1236 26.9883 43.1236C27.194 43.1026 27.3722 43.215 27.3722 43.3767ZM25.2403 43.0604C25.1923 43.201 25.3294 43.3627 25.5351 43.4049C25.7133 43.4752 25.919 43.4049 25.9601 43.2643C26.0012 43.1236 25.871 42.9619 25.6653 42.8987C25.4871 42.8495 25.2883 42.9198 25.2403 43.0604ZM28.2702 42.9409C28.0714 42.9901 27.9343 43.1237 27.9548 43.2854C27.9754 43.426 28.1536 43.5174 28.3593 43.4681C28.5581 43.4189 28.6952 43.2854 28.6746 43.1447C28.654 43.0112 28.469 42.9198 28.2702 42.9409ZM32.7806 16C23.273 16 16 23.4031 16 33.1544C16 40.9512 20.7847 47.6232 27.619 49.9714C28.4964 50.1331 28.8048 49.5776 28.8048 49.1207C28.8048 48.6848 28.7843 46.2803 28.7843 44.8039C28.7843 44.8039 23.9859 45.8585 22.9782 42.7089C22.9782 42.7089 22.1968 40.663 21.0726 40.1357C21.0726 40.1357 19.5028 39.0319 21.1823 39.053C21.1823 39.053 22.8891 39.1936 23.8282 40.8669C25.3294 43.5806 27.8452 42.8002 28.8254 42.3362C28.9831 41.2114 29.4286 40.431 29.9222 39.967C26.0903 39.5311 22.2242 38.9616 22.2242 32.1983C22.2242 30.2649 22.7452 29.2947 23.8419 28.0573C23.6637 27.6003 23.081 25.7161 24.0202 23.2836C25.4528 22.8266 28.75 25.1818 28.75 25.1818C30.121 24.7881 31.5948 24.5842 33.0548 24.5842C34.5149 24.5842 35.9887 24.7881 37.3597 25.1818C37.3597 25.1818 40.6569 22.8196 42.0895 23.2836C43.0286 25.7232 42.446 27.6003 42.2677 28.0573C43.3645 29.3017 44.0363 30.2719 44.0363 32.1983C44.0363 38.9827 39.9988 39.524 36.1669 39.967C36.7976 40.5224 37.3323 41.5769 37.3323 43.2291C37.3323 45.5984 37.3117 48.5301 37.3117 49.1066C37.3117 49.5636 37.627 50.119 38.4976 49.9573C45.3524 47.6232 50 40.9512 50 33.1544C50 23.4031 42.2883 16 32.7806 16ZM22.6629 40.2482C22.5738 40.3185 22.5944 40.4802 22.7109 40.6138C22.8206 40.7263 22.9782 40.7755 23.0673 40.6841C23.1565 40.6138 23.1359 40.4521 23.0194 40.3185C22.9097 40.206 22.752 40.1568 22.6629 40.2482ZM21.9226 39.6787C21.8746 39.7701 21.9431 39.8826 22.0802 39.9529C22.1899 40.0232 22.327 40.0021 22.375 39.9037C22.423 39.8123 22.3544 39.6998 22.2173 39.6295C22.0802 39.5873 21.9706 39.6084 21.9226 39.6787ZM24.1435 42.1816C24.0339 42.273 24.075 42.4839 24.2327 42.6175C24.3903 42.7792 24.5891 42.8002 24.6782 42.6878C24.7673 42.5964 24.7262 42.3854 24.5891 42.2519C24.4383 42.0902 24.2327 42.0691 24.1435 42.1816ZM23.3621 41.1481C23.2524 41.2184 23.2524 41.4012 23.3621 41.5629C23.4718 41.7246 23.6569 41.7949 23.746 41.7246C23.8556 41.6332 23.8556 41.4504 23.746 41.2887C23.65 41.127 23.4718 41.0567 23.3621 41.1481Z" fill="white"/>
</svg>
