<svg width="444" height="148" viewBox="0 0 444 148" fill="none" xmlns="http://www.w3.org/2000/svg">
<path d="M1.7605 121.053C31.0938 109.319 60.4272 106.386 89.7605 112.253C119.094 118.119 148.427 109.319 177.76 85.8527C207.094 62.386 236.427 65.3194 265.76 94.6527C295.094 123.986 324.427 109.319 353.76 50.6527C383.094 -8.01398 412.427 -13.8807 441.76 33.0527V147.453H1.7605V121.053Z" fill="url(#paint0_linear_132_546)"/>
<path d="M1.7605 121.053C31.0938 109.319 60.4272 106.386 89.7605 112.253C119.094 118.119 148.427 109.319 177.76 85.8527C207.094 62.386 236.427 65.3193 265.76 94.6527C295.094 123.986 324.427 109.319 353.76 50.6527C383.094 -8.01398 412.427 -13.8807 441.76 33.0527" stroke="url(#paint1_linear_132_546)" stroke-width="3.52" stroke-linecap="round" stroke-linejoin="round"/>
<path d="M177.76 91.1308C180.676 91.1308 183.04 88.7669 183.04 85.8508C183.04 82.9347 180.676 80.5708 177.76 80.5708C174.844 80.5708 172.48 82.9347 172.48 85.8508C172.48 88.7669 174.844 91.1308 177.76 91.1308Z" fill="#1E293B" stroke="#3B82F6" stroke-width="2.64"/>
<path d="M353.761 55.9329C356.678 55.9329 359.041 53.569 359.041 50.6529C359.041 47.7369 356.678 45.3729 353.761 45.3729C350.845 45.3729 348.481 47.7369 348.481 50.6529C348.481 53.569 350.845 55.9329 353.761 55.9329Z" fill="#1E293B" stroke="#A855F7" stroke-width="2.64"/>
<defs>
<linearGradient id="paint0_linear_132_546" x1="1.7605" y1="1.76379" x2="1.7605" y2="14570.7" gradientUnits="userSpaceOnUse">
<stop stop-color="#3B82F6" stop-opacity="0.3"/>
<stop offset="1" stop-color="#3B82F6" stop-opacity="0"/>
</linearGradient>
<linearGradient id="paint1_linear_132_546" x1="1.7605" y1="1.76379" x2="441.76" y2="1.76379" gradientUnits="userSpaceOnUse">
<stop stop-color="#3B82F6"/>
<stop offset="1" stop-color="#A855F7"/>
</linearGradient>
</defs>
</svg>
