<svg width="66" height="66" viewBox="0 0 66 66" fill="none" xmlns="http://www.w3.org/2000/svg">
<path d="M33.6883 30.225C32.1661 31.7063 31.214 33.8063 31.214 36.1375C31.214 37.9688 31.8023 39.6563 32.7908 41.0125L29.7888 44.125C29.522 44.025 29.237 43.9688 28.9398 43.9688C28.2848 43.9688 27.6723 44.2312 27.2114 44.7062C26.7505 45.1812 26.4958 45.8187 26.4958 46.4937C26.4958 47.1687 26.7505 47.8 27.2114 48.275C27.6723 48.75 28.2909 49 28.9398 49C29.5948 49 30.2073 48.7562 30.6742 48.275C31.1352 47.8 31.3899 47.1625 31.3899 46.4937C31.3899 46.2312 31.3535 45.9812 31.2746 45.7375L34.3069 42.6C35.6411 43.6563 37.3028 44.2812 39.1161 44.2812C43.4765 44.2812 47 40.6375 47 36.1437C47 32.0687 44.1072 28.6938 40.3169 28.1V24.25C41.3782 23.7875 42.0271 22.7625 42.0271 21.5687C42.0271 19.9375 40.7596 18.575 39.1767 18.575C37.5939 18.575 36.3446 19.9375 36.3446 21.5687C36.3446 22.7625 36.9935 23.7875 38.0548 24.25V28.075C37.133 28.2062 36.2597 28.4938 35.4652 28.925C33.7914 27.6188 28.3394 23.5687 25.2222 21.125C25.295 20.85 25.3435 20.5625 25.3435 20.2625C25.3435 18.4625 23.9183 17 22.1657 17C20.4191 17 19 18.4625 19 20.2625C19 22.0688 20.4191 23.5312 22.1657 23.5312C22.76 23.5312 23.3119 23.35 23.791 23.0563L33.6883 30.225ZM39.1161 40.45C36.8055 40.45 34.9316 38.5188 34.9316 36.1375C34.9316 33.7563 36.8055 31.825 39.1161 31.825C41.4267 31.825 43.3006 33.7563 43.3006 36.1375C43.3006 38.5188 41.4267 40.45 39.1161 40.45Z" fill="white"/>
</svg>
