<svg width="120" height="70" viewBox="0 0 120 70" fill="none" xmlns="http://www.w3.org/2000/svg">
<g opacity="0.5">
<path d="M6.70648 28H12.9337V34.2272H6.70648V28ZM13.4792 28H19.7065V34.2272H13.4792V28ZM6.70648 34.7728H12.9337V41H6.70648V34.7728ZM13.4792 34.7728H19.7065V41H13.4792V34.7728Z" fill="white"/>
<path d="M28.5167 40H26.4047V29.1531H29.7015L31.6736 37.682L33.6311 29.1531H36.891V40H34.779V32.6633C34.779 32.4523 34.7815 32.1579 34.7864 31.7802C34.7913 31.3975 34.7938 31.1032 34.7938 30.8971L32.7406 40H30.5404L28.502 30.8971C28.502 31.1032 28.5044 31.3975 28.5093 31.7802C28.5142 32.1579 28.5167 32.4523 28.5167 32.6633V40ZM38.6683 29.1531H40.9201V40H38.6683V29.1531ZM50.5419 39.1905C49.7325 39.9313 48.6973 40.3017 47.4365 40.3017C45.8764 40.3017 44.65 39.8013 43.7571 38.8005C42.8642 37.7948 42.4178 36.4163 42.4178 34.6649C42.4178 32.7712 42.9255 31.3117 43.9411 30.2864C44.8241 29.3935 45.9476 28.947 47.3114 28.947C49.1364 28.947 50.4708 29.5456 51.3146 30.7426C51.7807 31.4147 52.0309 32.0893 52.0652 32.7663H49.7987C49.6515 32.2463 49.4626 31.8538 49.2321 31.5889C48.82 31.1179 48.2092 30.8824 47.3997 30.8824C46.5755 30.8824 45.9255 31.216 45.4496 31.8832C44.9738 32.5455 44.7358 33.485 44.7358 34.7016C44.7358 35.9183 44.986 36.8308 45.4864 37.4391C45.9917 38.0426 46.6319 38.3443 47.4071 38.3443C48.2018 38.3443 48.8077 38.0843 49.2247 37.5642C49.4553 37.2846 49.6466 36.8651 49.7987 36.3059H52.0431C51.8469 37.4882 51.3465 38.4497 50.5419 39.1905ZM58.2357 35.7466H55.8956V40H53.6806V29.1531H59.001C59.7615 29.1678 60.3453 29.261 60.7524 29.4327C61.1645 29.6044 61.5129 29.8571 61.7974 30.1907C62.0329 30.4654 62.2193 30.7696 62.3567 31.1032C62.494 31.4368 62.5627 31.817 62.5627 32.2438C62.5627 32.7589 62.4327 33.2667 62.1727 33.7671C61.9127 34.2626 61.4834 34.6133 60.8849 34.8194C61.3853 35.0205 61.7385 35.3075 61.9446 35.6804C62.1555 36.0483 62.261 36.6125 62.261 37.3729V38.1014C62.261 38.5969 62.2806 38.933 62.3199 39.1096C62.3787 39.3892 62.5161 39.5953 62.732 39.7277V40H60.2373C60.1686 39.7596 60.1196 39.5658 60.0901 39.4187C60.0313 39.1145 59.9994 38.803 59.9945 38.4841L59.9798 37.4759C59.97 36.7842 59.8424 36.323 59.5971 36.0925C59.3567 35.8619 58.9029 35.7466 58.2357 35.7466ZM59.6118 33.7744C60.0632 33.5684 60.2888 33.1612 60.2888 32.5529C60.2888 31.8955 60.0705 31.454 59.6339 31.2283C59.3886 31.1007 59.0207 31.037 58.5301 31.037H55.8956V33.951H58.4638C58.9741 33.951 59.3567 33.8922 59.6118 33.7744ZM69.1674 40.3017C67.6171 40.3017 66.4324 39.8798 65.6131 39.036C64.5142 38.0009 63.9647 36.5095 63.9647 34.5618C63.9647 32.5749 64.5142 31.0836 65.6131 30.0877C66.4324 29.2439 67.6171 28.822 69.1674 28.822C70.7177 28.822 71.9024 29.2439 72.7217 30.0877C73.8157 31.0836 74.3627 32.5749 74.3627 34.5618C74.3627 36.5095 73.8157 38.0009 72.7217 39.036C71.9024 39.8798 70.7177 40.3017 69.1674 40.3017ZM71.3088 37.3876C71.8337 36.7253 72.0962 35.7834 72.0962 34.5618C72.0962 33.3452 71.8313 32.4057 71.3015 31.7434C70.7765 31.0762 70.0652 30.7426 69.1674 30.7426C68.2696 30.7426 67.5534 31.0737 67.0186 31.736C66.4839 32.3983 66.2165 33.3403 66.2165 34.5618C66.2165 35.7834 66.4839 36.7253 67.0186 37.3876C67.5534 38.0499 68.2696 38.3811 69.1674 38.3811C70.0652 38.3811 70.779 38.0499 71.3088 37.3876ZM79.8857 38.4326C80.4204 38.4326 80.8546 38.3737 81.1882 38.256C81.821 38.0303 82.1375 37.6108 82.1375 36.9976C82.1375 36.6395 81.9805 36.3623 81.6665 36.1661C81.3525 35.9747 80.8595 35.8055 80.1874 35.6583L79.0394 35.4007C77.9111 35.1456 77.131 34.8684 76.6993 34.5692C75.9683 34.0688 75.6028 33.2863 75.6028 32.2217C75.6028 31.2504 75.9561 30.4433 76.6625 29.8007C77.369 29.158 78.4066 28.8367 79.7753 28.8367C80.9184 28.8367 81.8922 29.1408 82.6967 29.7492C83.5062 30.3526 83.9306 31.2307 83.9698 32.3836H81.7916C81.7524 31.7311 81.4678 31.2675 80.938 30.9928C80.5848 30.8113 80.1457 30.7205 79.6208 30.7205C79.037 30.7205 78.5709 30.8383 78.2226 31.0737C77.8743 31.3092 77.7001 31.6379 77.7001 32.0598C77.7001 32.4474 77.8718 32.7368 78.2152 32.9282C78.436 33.0557 78.907 33.2054 79.6281 33.3771L81.4973 33.8259C82.3165 34.0222 82.9347 34.2846 83.3517 34.6133C83.9993 35.1236 84.323 35.8619 84.323 36.8283C84.323 37.8193 83.9428 38.6435 83.1824 39.3009C82.4269 39.9534 81.3574 40.2796 79.974 40.2796C78.5611 40.2796 77.4499 39.9583 76.6404 39.3156C75.831 38.6681 75.4262 37.7801 75.4262 36.6517H77.5897C77.6584 37.1472 77.7933 37.5176 77.9945 37.7629C78.3624 38.2094 78.9928 38.4326 79.8857 38.4326ZM90.6481 40.3017C89.0978 40.3017 87.9131 39.8798 87.0938 39.036C85.9949 38.0009 85.4454 36.5095 85.4454 34.5618C85.4454 32.5749 85.9949 31.0836 87.0938 30.0877C87.9131 29.2439 89.0978 28.822 90.6481 28.822C92.1984 28.822 93.3831 29.2439 94.2024 30.0877C95.2964 31.0836 95.8434 32.5749 95.8434 34.5618C95.8434 36.5095 95.2964 38.0009 94.2024 39.036C93.3831 39.8798 92.1984 40.3017 90.6481 40.3017ZM92.7895 37.3876C93.3144 36.7253 93.5769 35.7834 93.5769 34.5618C93.5769 33.3452 93.312 32.4057 92.7822 31.7434C92.2572 31.0762 91.5459 30.7426 90.6481 30.7426C89.7503 30.7426 89.0341 31.0737 88.4993 31.736C87.9646 32.3983 87.6972 33.3403 87.6972 34.5618C87.6972 35.7834 87.9646 36.7253 88.4993 37.3876C89.0341 38.0499 89.7503 38.3811 90.6481 38.3811C91.5459 38.3811 92.2597 38.0499 92.7895 37.3876ZM105.119 31.0737H99.6812V33.5684H104.442V35.4522H99.6812V40H97.4294V29.1678H105.119V31.0737ZM114.373 29.1531V31.0737H111.128V40H108.847V31.0737H105.587V29.1531H114.373Z" fill="white"/>
</g>
</svg>
