<svg width="66" height="66" viewBox="0 0 66 66" fill="none" xmlns="http://www.w3.org/2000/svg">
<path d="M28.9397 32.4098H27.4319C27.4719 32.1128 27.6204 31.6045 28.2087 31.6045C28.597 31.6045 28.894 31.8216 28.934 32.4098H28.9397ZM36.7415 31.6217C36.7129 31.6217 35.9362 31.5189 35.9362 32.7639C35.9362 34.009 36.7129 33.9062 36.7415 33.9062C37.484 33.9062 37.5468 33.1352 37.5468 32.7639C37.5468 31.5189 36.7643 31.6217 36.7415 31.6217ZM22.8514 32.9753C22.7886 33.0267 22.7372 33.0895 22.7086 33.158C22.6801 33.2266 22.6629 33.3122 22.6686 33.3865C22.6686 33.6606 22.7886 33.7349 22.8571 33.7863C23.1255 33.9976 23.7195 33.9062 24.0508 33.8434V32.8782C23.7481 32.8153 23.097 32.7639 22.8571 32.9695L22.8514 32.9753ZM51.277 31.6331C51.277 36.6363 46.7079 40.4515 41.8303 39.4234C40.7794 41.3082 37.7924 43.4671 34.2799 41.7994C31.9268 47.2823 24.1193 47.0653 22.0689 41.5024C15.2324 42.8674 11.857 33.5978 17.7683 30.1196C15.7807 25.5847 19.059 20.2046 24.2964 20.2046C25.3872 20.2046 26.461 20.4559 27.4376 20.9414C28.4143 21.4268 29.2653 22.1236 29.9278 22.986C31.1101 21.7638 32.7492 20.9985 34.5597 20.9985C36.9757 20.9985 39.0717 22.3406 40.2026 24.3453C45.5028 22.0208 51.2713 25.956 51.2713 31.6274L51.277 31.6331ZM21.6006 33.4493C21.6006 32.7754 20.9324 32.5812 20.5783 32.4669C20.2756 32.347 19.8129 32.267 19.8129 31.9586C19.8129 31.416 20.7839 31.576 21.2522 31.8387C21.2522 31.8387 21.3207 31.8787 21.3436 31.8101C21.355 31.7702 21.4807 31.4332 21.4921 31.3932C21.4978 31.3761 21.4978 31.3589 21.4864 31.3475C21.4749 31.3361 21.4635 31.319 21.4521 31.3132C20.7496 30.8792 19.1276 30.8278 19.1276 32.0386C19.1276 32.7525 19.7844 32.9181 20.1499 33.0209C20.4183 33.1123 20.9038 33.1923 20.9038 33.5178C20.9038 33.7463 20.7039 33.9233 20.3784 33.9233C19.9843 33.9233 19.6073 33.7977 19.2932 33.5635C19.2646 33.5521 19.2132 33.5236 19.2018 33.6035L19.0647 34.0319C19.0362 34.0833 19.0762 34.1004 19.0762 34.1118C19.179 34.1918 19.6644 34.4888 20.3784 34.4888C21.1323 34.4888 21.6006 34.0833 21.6006 33.455V33.4493ZM23.4282 31.0163C22.8514 31.0163 22.3602 31.199 22.206 31.3132C22.2003 31.319 22.1946 31.3247 22.1889 31.3304C22.1832 31.3361 22.1832 31.3418 22.1832 31.3532C22.1832 31.3646 22.1832 31.3704 22.1832 31.3761C22.1832 31.3818 22.1889 31.3932 22.1946 31.3989L22.3431 31.8044C22.3488 31.8158 22.3545 31.833 22.3716 31.8387C22.3888 31.8444 22.4002 31.8501 22.4116 31.8444C22.4459 31.8444 22.8 31.6159 23.3768 31.6159C23.6053 31.6159 23.7823 31.6559 23.9023 31.753C24.1079 31.9129 24.0793 32.2271 24.0793 32.3584C23.8052 32.3413 22.9885 32.1642 22.4002 32.5755C22.2688 32.6668 22.1546 32.7925 22.0861 32.9353C22.0175 33.0781 21.9776 33.2437 21.9833 33.4036C21.9833 33.7406 22.0689 33.9976 22.3602 34.2261C23.057 34.6944 24.4334 34.3403 24.5363 34.306C24.6276 34.2889 24.7362 34.266 24.7362 34.1975V32.2613C24.7362 31.9986 24.7533 31.0277 23.434 31.0277V31.0334L23.4282 31.0163ZM26.0897 29.8169C26.0897 29.8054 26.0897 29.7997 26.084 29.7883C26.0783 29.7769 26.0783 29.7712 26.0669 29.7655C26.0555 29.7597 26.0555 29.754 26.0441 29.7483C26.0326 29.7426 26.0269 29.7426 26.0155 29.7426H25.4558C25.4444 29.7426 25.4387 29.7426 25.4272 29.7483C25.4158 29.754 25.4101 29.754 25.4044 29.7655C25.3987 29.7769 25.393 29.7769 25.3872 29.7883C25.3815 29.7997 25.3815 29.8054 25.3815 29.8169V34.3289C25.3815 34.3403 25.3815 34.346 25.3872 34.3574C25.393 34.3688 25.393 34.3745 25.4044 34.3803C25.4158 34.386 25.4158 34.3917 25.4272 34.3974C25.4387 34.4031 25.4444 34.4031 25.4558 34.4031H26.0212C26.0326 34.4031 26.0383 34.4031 26.0498 34.3974C26.0612 34.3917 26.0669 34.3917 26.0726 34.3803C26.0783 34.3688 26.084 34.3688 26.0897 34.3574C26.0955 34.346 26.0955 34.3403 26.0955 34.3289L26.0897 29.8169ZM29.271 31.4675C29.1511 31.3361 28.8826 31.0391 28.2658 31.0391C28.0659 31.0391 27.4548 31.0505 27.0835 31.5474C26.718 31.9815 26.7066 32.5812 26.7066 32.7696C26.7066 32.9467 26.718 33.5864 27.1121 33.9805C27.2606 34.1461 27.6318 34.4488 28.4143 34.4488C29.0311 34.4488 29.3567 34.3174 29.4766 34.2318C29.5052 34.2203 29.5166 34.1918 29.488 34.1232L29.3567 33.7349C29.351 33.7177 29.3395 33.7063 29.3224 33.7006C29.3053 33.6949 29.2938 33.6892 29.2767 33.6949C29.1282 33.7463 28.9169 33.8548 28.4029 33.8548C27.4091 33.8548 27.4433 33.0152 27.4376 32.901H29.5623C29.5794 32.901 29.5908 32.8953 29.6023 32.8839C29.6137 32.8725 29.6251 32.861 29.6251 32.8439C29.608 32.8439 29.745 32.0043 29.2767 31.4617L29.271 31.4675ZM31.3671 34.4774C32.121 34.4774 32.5893 34.0718 32.5893 33.4436C32.5893 32.7696 31.9211 32.5755 31.567 32.4612C31.3328 32.3641 30.8016 32.267 30.8016 31.9529C30.8016 31.7359 30.9901 31.5874 31.2871 31.5874C31.6184 31.5931 31.9439 31.6788 32.2409 31.8273C32.2409 31.8273 32.3095 31.8672 32.3323 31.7987C32.3437 31.7587 32.4694 31.4218 32.4808 31.3818C32.4865 31.3646 32.4865 31.3475 32.4751 31.3361C32.4637 31.3247 32.4522 31.3075 32.4408 31.3018C31.9896 31.022 31.487 31.022 31.2871 31.022C30.6017 31.022 30.1163 31.4389 30.1163 32.0272C30.1163 32.7411 30.7731 32.9067 31.1386 33.0095C31.487 33.1238 31.8925 33.198 31.8925 33.5064C31.8925 33.7349 31.6926 33.9119 31.3671 33.9119C30.973 33.9119 30.596 33.7863 30.2819 33.5464C30.2762 33.5407 30.2648 33.535 30.2534 33.535C30.2419 33.535 30.2305 33.535 30.2248 33.5407C30.2191 33.5464 30.2077 33.5521 30.202 33.5578C30.1962 33.5635 30.1905 33.575 30.1905 33.5864L30.0592 34.0147C30.0306 34.0661 30.0706 34.0833 30.0706 34.0947C30.1677 34.1746 30.6589 34.4716 31.3728 34.4716L31.3671 34.4774ZM35.1195 31.1762C35.1195 31.1362 35.108 31.1076 35.0509 31.1076H34.377C34.377 31.1019 34.4284 30.5993 34.634 30.3937C34.8739 30.1538 35.3079 30.3023 35.3194 30.3023C35.3879 30.3309 35.3993 30.3023 35.4107 30.2738L35.5707 29.8283C35.6106 29.7769 35.5707 29.7597 35.5592 29.7483C35.268 29.6341 34.5655 29.5827 34.1599 29.9882C33.8458 30.3023 33.7601 30.7821 33.703 31.1019H33.2176C33.2004 31.1019 33.1833 31.1133 33.1719 31.1248C33.1604 31.1362 33.1547 31.1533 33.149 31.1705L33.0691 31.6159C33.0691 31.6559 33.0805 31.6845 33.1376 31.6845H33.6059C33.1205 34.4202 33.109 34.5516 33.0177 34.8543C32.9548 35.0599 32.8292 35.2484 32.6807 35.2998C32.675 35.2998 32.4579 35.3969 32.1324 35.2884C32.1324 35.2884 32.081 35.2598 32.0524 35.3284C32.041 35.3683 31.9039 35.7167 31.8925 35.7567C31.8811 35.7967 31.8925 35.8367 31.9211 35.8367C32.2124 35.9509 32.6636 35.9395 32.9434 35.8367C33.3032 35.7053 33.4974 35.3855 33.6002 35.0999C33.7601 34.6601 33.7601 34.5402 34.2742 31.6902H34.971C34.9881 31.6902 35.0052 31.6788 35.0167 31.6673C35.0281 31.6559 35.0338 31.6388 35.0395 31.6217L35.1195 31.1762ZM38.1693 32.09C38.1351 31.9929 37.8781 31.0562 36.7301 31.0562C35.8619 31.0562 35.4164 31.6274 35.2908 32.09C35.2337 32.2613 35.108 32.8896 35.2908 33.4322C35.2965 33.4493 35.5421 34.4659 36.7301 34.4659C37.5868 34.4659 38.038 33.9176 38.1693 33.4322C38.3521 32.8839 38.2265 32.2613 38.1693 32.09ZM40.7623 31.1362C40.4767 31.0391 39.8142 31.0277 39.5001 31.4446V31.1876C39.5001 31.1762 39.5001 31.1705 39.4944 31.159C39.4887 31.1476 39.4887 31.1419 39.4772 31.1362C39.4658 31.1305 39.4658 31.1248 39.4544 31.1191C39.443 31.1133 39.4373 31.1133 39.4258 31.1133H38.889C38.8776 31.1133 38.8718 31.1133 38.8604 31.1191C38.849 31.1248 38.8433 31.1248 38.8376 31.1362C38.8319 31.1476 38.8261 31.1476 38.8204 31.159C38.8147 31.1705 38.8147 31.1762 38.8147 31.1876V34.346C38.8147 34.3574 38.8147 34.3631 38.8204 34.3745C38.8261 34.386 38.8261 34.3917 38.8376 34.3974C38.849 34.4031 38.849 34.4088 38.8604 34.4145C38.8718 34.4202 38.8776 34.4202 38.889 34.4202H39.4373C39.4487 34.4202 39.4544 34.4202 39.4658 34.4145C39.4772 34.4088 39.483 34.4088 39.4887 34.3974C39.4944 34.386 39.5001 34.386 39.5058 34.3745C39.5115 34.3631 39.5115 34.3574 39.5115 34.346V32.7582C39.5115 32.5926 39.5172 32.1071 39.7685 31.8958C40.0484 31.6159 40.4539 31.7016 40.5339 31.7188C40.551 31.7188 40.5681 31.713 40.5795 31.7016C40.591 31.6902 40.6024 31.6788 40.6138 31.6616C40.6823 31.5131 40.7395 31.3589 40.7909 31.2047C40.7966 31.1876 40.7966 31.1762 40.7909 31.159C40.7852 31.1419 40.7737 31.1305 40.7623 31.1248V31.1362ZM43.4352 34.2261L43.3153 33.8091C43.2867 33.7406 43.2353 33.7691 43.2353 33.7691C42.9955 33.8719 42.6585 33.8777 42.59 33.8777C42.3272 33.8777 41.6076 33.8148 41.6076 32.7468C41.6076 32.3927 41.7104 31.6159 42.55 31.6159C42.7727 31.6102 42.9955 31.6445 43.2068 31.7073C43.2068 31.7073 43.2582 31.7359 43.2753 31.6673C43.3267 31.5189 43.3667 31.4103 43.4238 31.239C43.4352 31.1876 43.3953 31.1705 43.3838 31.1705C42.7213 30.9477 42.1102 31.0277 41.7961 31.1705C41.7047 31.2104 40.8708 31.5417 40.8708 32.7411C40.8708 32.9067 40.8366 34.4602 42.5214 34.4602C42.8241 34.4602 43.1268 34.4031 43.4067 34.3003C43.4181 34.2889 43.4295 34.2775 43.4352 34.266C43.4409 34.2546 43.4409 34.2375 43.4352 34.2203V34.2261ZM46.5137 31.9701C46.468 31.7987 46.2053 31.0448 45.24 31.0448C44.3262 31.0448 43.8979 31.6217 43.7779 32.1071C43.7094 32.3242 43.6808 32.5526 43.6808 32.7811C43.6808 34.2603 44.7546 34.4602 45.3885 34.4602C46.0054 34.4602 46.3309 34.3289 46.4508 34.2432C46.4794 34.2318 46.4908 34.2032 46.4623 34.1347L46.3252 33.7463C46.3195 33.7292 46.3081 33.7177 46.2909 33.712C46.2738 33.7063 46.2567 33.7006 46.2452 33.7063C46.0967 33.7577 45.8854 33.8662 45.3714 33.8662C44.3776 33.8662 44.4062 33.0267 44.4062 32.9124H46.5308C46.5479 32.9124 46.5594 32.9067 46.5708 32.8953C46.5822 32.8839 46.5936 32.8725 46.5936 32.8553C46.5822 32.8553 46.645 32.4498 46.5137 31.9701ZM45.1829 31.6045C44.5946 31.6045 44.4404 32.1185 44.4062 32.4098H45.914C45.8626 31.7302 45.4799 31.6045 45.1886 31.6045H45.1829Z" fill="white"/>
</svg>
