<svg width="66" height="66" viewBox="0 0 66 66" fill="none" xmlns="http://www.w3.org/2000/svg">
<path d="M43.5104 23.2014C43.4976 23.1305 43.4656 23.0659 43.4144 23.0208C43.3631 22.9756 43.2991 22.9434 43.2287 22.9434C43.1006 22.9434 40.8468 22.8918 40.8468 22.8918C40.8468 22.8918 39.4638 21.5499 38.9515 21.0338V48.9484L47 46.9356C47 46.9356 43.5424 23.3562 43.5168 23.2014H43.5104ZM37.1331 21.0338C37.0114 20.6403 36.8578 20.2661 36.6721 19.8984C36.0062 18.6081 35.0073 17.9049 33.8292 17.9049C33.7459 17.9049 33.6563 17.9114 33.5731 17.9307C33.5474 17.8791 33.4962 17.8533 33.4706 17.8017C32.9584 17.234 32.2925 16.976 31.4985 17.0018C29.9618 17.0534 28.4251 18.163 27.1957 20.15C26.3249 21.5434 25.659 23.2982 25.4798 24.6723C23.7126 25.2142 22.4832 25.6013 22.4576 25.6271C21.5612 25.9109 21.5356 25.9368 21.4331 26.7883C21.3563 27.4334 19 45.6131 19 45.6131L38.3753 49V20.7241C38.2792 20.7306 38.1896 20.737 38.0935 20.7499C38.0935 20.7499 37.735 20.8532 37.1459 21.0338H37.1331ZM33.5923 22.1434C32.5678 22.4531 31.4409 22.8143 30.3396 23.1498C30.6469 21.937 31.2616 20.7241 31.9787 19.9242C32.2605 19.6403 32.6446 19.3049 33.08 19.0984C33.5154 20.0274 33.6179 21.2918 33.5923 22.1434ZM31.4921 18.0598C31.8123 18.0469 32.1324 18.1307 32.4141 18.292C32.0043 18.4984 31.5946 18.8339 31.2104 19.221C30.2371 20.279 29.4944 21.9305 29.1871 23.5111C28.265 23.7949 27.343 24.0788 26.4978 24.3368C27.0613 21.8596 29.1358 18.1178 31.4921 18.0662V18.0598ZM28.5212 32.2654C28.6236 33.917 32.952 34.2782 33.2081 38.1812C33.3874 41.252 31.5946 43.3487 29.0078 43.5035C25.8831 43.71 24.1672 41.852 24.1672 41.852L24.8331 39.0135C24.8331 39.0135 26.5491 40.3295 27.9321 40.2263C28.8285 40.1747 29.1614 39.4263 29.1358 38.9102C29.0078 36.7426 25.4734 36.8716 25.2429 33.3041C25.038 30.3107 26.9845 27.2851 31.2936 27.0012C32.9584 26.898 33.8036 27.3109 33.8036 27.3109L32.8303 31.0268C32.8303 31.0268 31.729 30.5107 30.4228 30.6139C28.5276 30.7429 28.5019 31.9558 28.5276 32.2654H28.5212ZM34.6167 21.8337C34.6167 21.0596 34.5143 19.95 34.1557 19.021C35.3339 19.2532 35.8973 20.5693 36.1534 21.3693C35.6924 21.4983 35.1802 21.6531 34.6167 21.8337Z" fill="white"/>
</svg>
