<svg width="66" height="66" viewBox="0 0 66 66" fill="none" xmlns="http://www.w3.org/2000/svg">
<path d="M24.2979 36.96C24.2979 38.6955 22.8801 40.1133 21.1445 40.1133C19.409 40.1133 17.9912 38.6955 17.9912 36.96C17.9912 35.2244 19.409 33.8066 21.1445 33.8066H24.2979V36.96Z" fill="#92A0B5"/>
<path d="M25.8867 36.96C25.8867 35.2244 27.3045 33.8066 29.0401 33.8066C30.7756 33.8066 32.1934 35.2244 32.1934 36.96V44.8555C32.1934 46.5911 30.7756 48.0089 29.0401 48.0089C27.3045 48.0089 25.8867 46.5911 25.8867 44.8555V36.96Z" fill="#92A0B5"/>
<path d="M29.0401 24.2978C27.3045 24.2978 25.8867 22.88 25.8867 21.1444C25.8867 19.4089 27.3045 17.9911 29.0401 17.9911C30.7756 17.9911 32.1934 19.4089 32.1934 21.1444V24.2978H29.0401Z" fill="#92A0B5"/>
<path d="M29.0401 25.8866C30.7757 25.8866 32.1934 27.3044 32.1934 29.0399C32.1934 30.7755 30.7757 32.1933 29.0401 32.1933H21.1445C19.409 32.1933 17.9912 30.7755 17.9912 29.0399C17.9912 27.3044 19.409 25.8866 21.1445 25.8866H29.0401Z" fill="#92A0B5"/>
<path d="M41.7024 29.0399C41.7024 27.3044 43.1202 25.8866 44.8557 25.8866C46.5913 25.8866 48.0091 27.3044 48.0091 29.0399C48.0091 30.7755 46.5913 32.1933 44.8557 32.1933H41.7024V29.0399Z" fill="#92A0B5"/>
<path d="M40.1136 29.04C40.1136 30.7755 38.6958 32.1933 36.9602 32.1933C35.2247 32.1933 33.8069 30.7755 33.8069 29.04V21.1444C33.8069 19.4089 35.2247 17.9911 36.9602 17.9911C38.6958 17.9911 40.1136 19.4089 40.1136 21.1444V29.04Z" fill="#92A0B5"/>
<path d="M36.9602 41.7021C38.6958 41.7021 40.1136 43.1199 40.1136 44.8555C40.1136 46.591 38.6958 48.0088 36.9602 48.0088C35.2247 48.0088 33.8069 46.591 33.8069 44.8555V41.7021H36.9602Z" fill="#92A0B5"/>
<path d="M36.9602 40.1133C35.2247 40.1133 33.8069 38.6955 33.8069 36.96C33.8069 35.2244 35.2247 33.8066 36.9602 33.8066H44.8558C46.5913 33.8066 48.0091 35.2244 48.0091 36.96C48.0091 38.6955 46.5913 40.1133 44.8558 40.1133H36.9602Z" fill="#92A0B5"/>
</svg>
