<svg width="120" height="70" viewBox="0 0 120 70" fill="none" xmlns="http://www.w3.org/2000/svg">
<g opacity="0.5">
<path d="M25.5 27C21.3569 27 18 30.3569 18 34.5C18 38.6431 21.3569 42 25.5 42C29.6431 42 33 38.6431 33 34.5C33 30.3569 29.6431 27 25.5 27ZM28.5454 38.0353C28.4183 38.0353 28.3397 37.996 28.2218 37.9264C26.3347 36.7893 24.1391 36.7409 21.9708 37.1855C21.8528 37.2157 21.6986 37.2641 21.6109 37.2641C21.3175 37.2641 21.1331 37.0312 21.1331 36.7863C21.1331 36.4748 21.3175 36.3266 21.5444 36.2782C24.0212 35.7308 26.5524 35.7792 28.7117 37.0706C28.8962 37.1885 29.005 37.2944 29.005 37.5696C29.005 37.8448 28.7903 38.0353 28.5454 38.0353ZM29.3589 36.0514C29.2016 36.0514 29.0958 35.9819 28.9869 35.9244C27.0968 34.8054 24.2782 34.3548 21.7712 35.0353C21.626 35.0746 21.5474 35.1139 21.4113 35.1139C21.0877 35.1139 20.8246 34.8508 20.8246 34.5272C20.8246 34.2036 20.9819 33.9889 21.2933 33.9012C22.1341 33.6653 22.9929 33.4899 24.251 33.4899C26.2137 33.4899 28.1099 33.9768 29.6038 34.8659C29.8488 35.0111 29.9456 35.1986 29.9456 35.4617C29.9425 35.7883 29.6885 36.0514 29.3589 36.0514ZM30.2964 33.747C30.1391 33.747 30.0423 33.7077 29.9063 33.629C27.753 32.3438 23.9032 32.0353 21.4113 32.7308C21.3024 32.7611 21.1663 32.8095 21.0212 32.8095C20.622 32.8095 20.3165 32.498 20.3165 32.0958C20.3165 31.6845 20.5706 31.4516 20.8427 31.373C21.9073 31.0615 23.0988 30.9133 24.3962 30.9133C26.6038 30.9133 28.9173 31.373 30.6079 32.3589C30.8437 32.495 30.998 32.6825 30.998 33.0423C30.998 33.4536 30.6653 33.747 30.2964 33.747Z" fill="white"/>
<path d="M43.0849 38.4326C43.6197 38.4326 44.0539 38.3737 44.3875 38.256C45.0203 38.0303 45.3367 37.6108 45.3367 36.9976C45.3367 36.6395 45.1798 36.3623 44.8658 36.1661C44.5518 35.9747 44.0588 35.8055 43.3867 35.6583L42.2387 35.4007C41.1103 35.1456 40.3303 34.8684 39.8986 34.5692C39.1676 34.0688 38.8021 33.2863 38.8021 32.2217C38.8021 31.2504 39.1553 30.4433 39.8618 29.8007C40.5682 29.158 41.6058 28.8367 42.9746 28.8367C44.1176 28.8367 45.0915 29.1408 45.896 29.7492C46.7055 30.3526 47.1298 31.2307 47.1691 32.3836H44.9909C44.9516 31.7311 44.6671 31.2675 44.1373 30.9928C43.784 30.8113 43.345 30.7205 42.82 30.7205C42.2362 30.7205 41.7702 30.8383 41.4219 31.0737C41.0735 31.3092 40.8994 31.6379 40.8994 32.0598C40.8994 32.4474 41.0711 32.7368 41.4145 32.9282C41.6353 33.0557 42.1062 33.2054 42.8274 33.3771L44.6965 33.8259C45.5158 34.0222 46.134 34.2846 46.551 34.6133C47.1985 35.1236 47.5223 35.8619 47.5223 36.8283C47.5223 37.8193 47.1421 38.6435 46.3817 39.3009C45.6262 39.9534 44.5567 40.2796 43.1733 40.2796C41.7604 40.2796 40.6492 39.9583 39.8397 39.3156C39.0302 38.6681 38.6255 37.7801 38.6255 36.6517H40.789C40.8577 37.1472 40.9926 37.5176 41.1937 37.7629C41.5617 38.2094 42.1921 38.4326 43.0849 38.4326ZM53.656 36.0998H51.3527V40H49.1009V29.1531H53.8253C54.9144 29.1531 55.7827 29.4327 56.4303 29.992C57.0779 30.5513 57.4017 31.4172 57.4017 32.5897C57.4017 33.8701 57.0779 34.7752 56.4303 35.3051C55.7827 35.8349 54.858 36.0998 53.656 36.0998ZM54.7157 33.8407C55.0101 33.5807 55.1572 33.1686 55.1572 32.6044C55.1572 32.0402 55.0076 31.6379 54.7084 31.3975C54.414 31.1571 53.9995 31.037 53.4647 31.037H51.3527V34.2307H53.4647C53.9995 34.2307 54.4165 34.1007 54.7157 33.8407ZM63.7488 40.3017C62.1986 40.3017 61.0138 39.8798 60.1945 39.036C59.0956 38.0009 58.5461 36.5095 58.5461 34.5618C58.5461 32.5749 59.0956 31.0836 60.1945 30.0877C61.0138 29.2439 62.1986 28.822 63.7488 28.822C65.2991 28.822 66.4838 29.2439 67.3031 30.0877C68.3971 31.0836 68.9441 32.5749 68.9441 34.5618C68.9441 36.5095 68.3971 38.0009 67.3031 39.036C66.4838 39.8798 65.2991 40.3017 63.7488 40.3017ZM65.8902 37.3876C66.4152 36.7253 66.6776 35.7834 66.6776 34.5618C66.6776 33.3452 66.4127 32.4057 65.8829 31.7434C65.3579 31.0762 64.6466 30.7426 63.7488 30.7426C62.851 30.7426 62.1348 31.0737 61.6 31.736C61.0653 32.3983 60.7979 33.3403 60.7979 34.5618C60.7979 35.7834 61.0653 36.7253 61.6 37.3876C62.1348 38.0499 62.851 38.3811 63.7488 38.3811C64.6466 38.3811 65.3604 38.0499 65.8902 37.3876ZM78.4114 29.1531V31.0737H75.1662V40H72.8849V31.0737H69.625V29.1531H78.4114ZM79.416 29.1531H81.6678V40H79.416V29.1531ZM91.3264 31.0737H85.8883V33.5684H90.6494V35.4522H85.8883V40H83.6365V29.1678H91.3264V31.0737ZM101.456 29.1531L97.8281 35.9232V40H95.5616V35.9232L91.8086 29.1531H94.4798L96.7316 33.8775L98.8878 29.1531H101.456Z" fill="white"/>
</g>
</svg>
