<svg width="22" height="22" viewBox="0 0 22 22" fill="none" xmlns="http://www.w3.org/2000/svg">
<path d="M9.55375 7.36411C9.55375 6.61287 10.1803 6.32316 11.1842 6.32316C12.6463 6.32316 14.5025 6.77121 15.9645 7.5595V3.03525C14.3711 2.39856 12.781 2.15601 11.1876 2.15601C7.28994 2.15601 4.69263 4.19074 4.69263 7.59318C4.69263 12.9125 11.9961 12.0501 11.9961 14.3442C11.9961 15.2335 11.2246 15.5199 10.1534 15.5199C8.56333 15.5199 6.50839 14.863 4.89475 13.9871V18.3159C6.55555 19.0335 8.34099 19.4041 10.15 19.4074C14.1454 19.4074 16.8976 17.6894 16.8976 14.233C16.8976 8.49938 9.55375 9.52685 9.55375 7.36411Z" fill="#0F6FFF"/>
</svg>
