<svg width="120" height="70" viewBox="0 0 120 70" fill="none" xmlns="http://www.w3.org/2000/svg">
<g opacity="0.5">
<path d="M23.4732 29.8628L21.5109 30.2463L21.5018 36.1819C21.5018 37.2781 22.3991 37.9867 23.591 37.9867C24.2527 37.9867 24.7376 37.8742 25.005 37.7408V36.3319C24.7467 36.4278 23.4777 36.7696 23.4777 35.6775V33.0432H25.005V31.4676H23.4777L23.4732 29.8628ZM27.5112 32.0136L27.3888 31.4676H25.6485V37.8534H27.6562V33.5559C28.1321 32.9807 28.9342 33.0932 29.1925 33.1682V31.4676C28.9206 31.3801 27.9825 31.2175 27.5112 32.0136ZM31.6942 29L29.6729 29.396V30.9049L31.6942 30.5089V29ZM18.0303 33.3475C18.0303 33.0599 18.2932 32.9473 18.7146 32.9432C19.3265 32.9432 20.106 33.1141 20.7178 33.4183V31.676C20.0516 31.4343 19.3854 31.3384 18.7192 31.3384C17.0877 31.3384 16 32.122 16 33.4308C16 35.4816 19.0591 35.1482 19.0591 36.0318C19.0591 36.3736 18.7373 36.4862 18.2886 36.4862C17.6224 36.4862 16.7614 36.2319 16.0861 35.8943V37.5616C16.8339 37.8575 17.5907 37.9826 18.2841 37.9826C19.9564 37.9826 21.1075 37.324 21.1075 35.9901C21.1075 33.7851 18.0303 34.1811 18.0303 33.3475ZM45 34.7355C45 32.839 44.003 31.3426 42.0905 31.3426C40.178 31.3426 39.0133 32.839 39.0133 34.723C39.0133 36.953 40.3865 37.9826 42.3443 37.9826C43.305 37.9826 44.0256 37.7825 44.574 37.5032V36.111C44.0256 36.3653 43.3957 36.5195 42.5981 36.5195C41.814 36.5195 41.1252 36.2653 41.0345 35.3983H44.9728C44.9819 35.3024 45 34.9147 45 34.7355ZM41.0164 34.0352C41.0164 33.2016 41.5738 32.8515 42.0769 32.8515C42.5709 32.8515 43.0966 33.2016 43.0966 34.0352H41.0164ZM35.8998 31.3426C35.1113 31.3426 34.6037 31.6844 34.3227 31.9219L34.2185 31.4634H32.4465V40L34.4587 39.6082L34.4632 37.5157C34.7532 37.7116 35.1838 37.9826 35.8862 37.9826C37.3274 37.9826 38.6417 37.0155 38.6417 34.6646C38.6462 32.5138 37.3138 31.3426 35.8998 31.3426ZM35.4194 36.4487C34.9481 36.4487 34.6671 36.2903 34.4723 36.0985L34.4587 33.3475C34.6671 33.1349 34.9572 32.9807 35.4194 32.9807C36.1536 32.9807 36.6612 33.7393 36.6612 34.7063C36.6657 35.7025 36.1672 36.4487 35.4194 36.4487ZM29.6774 37.8534H31.6987V31.4676H29.6774V37.8534Z" fill="white"/>
<path d="M55.0849 38.4326C55.6197 38.4326 56.0539 38.3737 56.3875 38.256C57.0203 38.0303 57.3367 37.6108 57.3367 36.9976C57.3367 36.6395 57.1798 36.3623 56.8658 36.1661C56.5518 35.9747 56.0588 35.8055 55.3867 35.6583L54.2387 35.4007C53.1103 35.1456 52.3303 34.8684 51.8986 34.5692C51.1676 34.0688 50.8021 33.2863 50.8021 32.2217C50.8021 31.2504 51.1553 30.4433 51.8618 29.8007C52.5682 29.158 53.6058 28.8367 54.9746 28.8367C56.1176 28.8367 57.0915 29.1408 57.896 29.7492C58.7055 30.3526 59.1298 31.2307 59.1691 32.3836H56.9909C56.9516 31.7311 56.6671 31.2675 56.1373 30.9928C55.784 30.8113 55.345 30.7205 54.82 30.7205C54.2362 30.7205 53.7702 30.8383 53.4219 31.0737C53.0735 31.3092 52.8994 31.6379 52.8994 32.0598C52.8994 32.4474 53.0711 32.7368 53.4145 32.9282C53.6353 33.0557 54.1062 33.2054 54.8274 33.3771L56.6965 33.8259C57.5158 34.0222 58.134 34.2846 58.551 34.6133C59.1985 35.1236 59.5223 35.8619 59.5223 36.8283C59.5223 37.8193 59.1421 38.6435 58.3817 39.3009C57.6262 39.9534 56.5567 40.2796 55.1733 40.2796C53.7604 40.2796 52.6492 39.9583 51.8397 39.3156C51.0302 38.6681 50.6255 37.7801 50.6255 36.6517H52.789C52.8577 37.1472 52.9926 37.5176 53.1937 37.7629C53.5617 38.2094 54.1921 38.4326 55.0849 38.4326ZM68.9307 29.1531V31.0737H65.6855V40H63.4042V31.0737H60.1443V29.1531H68.9307ZM74.7186 35.7466H72.3785V40H70.1635V29.1531H75.4839C76.2443 29.1678 76.8281 29.261 77.2353 29.4327C77.6474 29.6044 77.9957 29.8571 78.2802 30.1907C78.5157 30.4654 78.7022 30.7696 78.8395 31.1032C78.9769 31.4368 79.0456 31.817 79.0456 32.2438C79.0456 32.7589 78.9156 33.2667 78.6555 33.7671C78.3955 34.2626 77.9663 34.6133 77.3678 34.8194C77.8682 35.0205 78.2214 35.3075 78.4274 35.6804C78.6384 36.0483 78.7439 36.6125 78.7439 37.3729V38.1014C78.7439 38.5969 78.7635 38.933 78.8027 39.1096C78.8616 39.3892 78.999 39.5953 79.2148 39.7277V40H76.7202C76.6515 39.7596 76.6024 39.5658 76.573 39.4187C76.5141 39.1145 76.4822 38.803 76.4773 38.4841L76.4626 37.4759C76.4528 36.7842 76.3253 36.323 76.08 36.0925C75.8396 35.8619 75.3858 35.7466 74.7186 35.7466ZM76.0947 33.7744C76.546 33.5684 76.7717 33.1612 76.7717 32.5529C76.7717 31.8955 76.5534 31.454 76.1168 31.2283C75.8715 31.1007 75.5035 31.037 75.0129 31.037H72.3785V33.951H74.9467C75.4569 33.951 75.8396 33.8922 76.0947 33.7744ZM80.6757 29.1531H82.9275V40H80.6757V29.1531ZM89.5027 36.0998H87.1994V40H84.9476V29.1531H89.672C90.7611 29.1531 91.6294 29.4327 92.277 29.992C92.9246 30.5513 93.2484 31.4172 93.2484 32.5897C93.2484 33.8701 92.9246 34.7752 92.277 35.3051C91.6294 35.8349 90.7047 36.0998 89.5027 36.0998ZM90.5624 33.8407C90.8568 33.5807 91.0039 33.1686 91.0039 32.6044C91.0039 32.0402 90.8543 31.6379 90.5551 31.3975C90.2607 31.1571 89.8462 31.037 89.3114 31.037H87.1994V34.2307H89.3114C89.8462 34.2307 90.2632 34.1007 90.5624 33.8407ZM102.348 35.2609H97.0788V38.0499H103.084V40H94.8638V29.1531H102.819V31.0737H97.0788V33.3771H102.348V35.2609Z" fill="white"/>
</g>
</svg>
