<svg width="120" height="70" viewBox="0 0 120 70" fill="none" xmlns="http://www.w3.org/2000/svg">
<g opacity="0.5">
<path d="M42.019 28H30.9839C30.4412 28 30 28.4411 30 28.9837V40.0134C30 40.5589 30.4412 41 30.9839 41H42.0161C42.5588 41 43 40.5589 43 40.0163V28.9837C43.0029 28.4411 42.5617 28 42.019 28ZM36.8962 38.4203C34.731 38.6379 32.7979 37.0594 32.5803 34.8946H35.3202V35.4866C35.3202 35.594 35.4072 35.6839 35.5175 35.6839H37.4883C37.5957 35.6839 37.6856 35.5969 37.6856 35.4866V33.5163C37.6856 33.4089 37.5986 33.319 37.4883 33.319H35.5175C35.4101 33.319 35.3202 33.406 35.3202 33.5163V34.1083H32.5803C32.7834 32.0944 34.4785 30.5623 36.5014 30.5623C38.5244 30.5623 40.2195 32.0944 40.4226 34.1083C40.6403 36.2701 39.0614 38.2027 36.8962 38.4203Z" fill="white"/>
<path d="M55.5649 35.8202V29.1531H57.8682V35.8202C57.8682 36.9731 57.6891 37.8708 57.331 38.5135C56.6638 39.6909 55.3907 40.2796 53.5118 40.2796C51.6328 40.2796 50.3573 39.6909 49.6852 38.5135C49.327 37.8708 49.148 36.9731 49.148 35.8202V29.1531H51.4513V35.8202C51.4513 36.5659 51.5396 37.1104 51.7162 37.4538C51.9909 38.0622 52.5895 38.3663 53.5118 38.3663C54.4292 38.3663 55.0252 38.0622 55.3 37.4538C55.4766 37.1104 55.5649 36.5659 55.5649 35.8202ZM64.8408 40H59.9251V29.1531H65.194C66.5235 29.1727 67.4655 29.5578 68.0198 30.3084C68.3534 30.7696 68.5202 31.3215 68.5202 31.9642C68.5202 32.6265 68.3534 33.1587 68.0198 33.561C67.8334 33.7867 67.5587 33.9927 67.1956 34.1792C67.75 34.3803 68.167 34.6992 68.4466 35.1358C68.7312 35.5724 68.8734 36.1023 68.8734 36.7253C68.8734 37.368 68.7116 37.9444 68.3878 38.4546C68.1817 38.7932 67.9242 39.0777 67.6151 39.3083C67.2668 39.5732 66.8547 39.7547 66.3788 39.8528C65.9078 39.9509 65.3952 40 64.8408 40ZM64.7893 35.2241H62.0886V38.1161H64.7525C65.2284 38.1161 65.5988 38.0524 65.8637 37.9248C66.3445 37.6893 66.5849 37.238 66.5849 36.5708C66.5849 36.0066 66.3518 35.619 65.8858 35.4081C65.6258 35.2904 65.2603 35.229 64.7893 35.2241ZM65.9152 33.1563C66.2096 32.9797 66.3567 32.6633 66.3567 32.207C66.3567 31.7017 66.1605 31.3681 65.768 31.2062C65.4295 31.0934 64.9978 31.037 64.4729 31.037H62.0886V33.4286H64.7525C65.2284 33.4286 65.6159 33.3378 65.9152 33.1563ZM78.1788 35.2609H72.9099V38.0499H78.9147V40H70.6949V29.1531H78.6498V31.0737H72.9099V33.3771H78.1788V35.2609ZM85.1367 35.7466H82.7966V40H80.5816V29.1531H85.9021C86.6625 29.1678 87.2463 29.261 87.6535 29.4327C88.0655 29.6044 88.4139 29.8571 88.6984 30.1907C88.9339 30.4654 89.1203 30.7696 89.2577 31.1032C89.395 31.4368 89.4637 31.817 89.4637 32.2438C89.4637 32.7589 89.3337 33.2667 89.0737 33.7671C88.8137 34.2626 88.3844 34.6133 87.7859 34.8194C88.2863 35.0205 88.6395 35.3075 88.8456 35.6804C89.0565 36.0483 89.162 36.6125 89.162 37.3729V38.1014C89.162 38.5969 89.1816 38.933 89.2209 39.1096C89.2798 39.3892 89.4171 39.5953 89.633 39.7277V40H87.1383C87.0697 39.7596 87.0206 39.5658 86.9912 39.4187C86.9323 39.1145 86.9004 38.803 86.8955 38.4841L86.8808 37.4759C86.871 36.7842 86.7434 36.323 86.4981 36.0925C86.2577 35.8619 85.8039 35.7466 85.1367 35.7466ZM86.5128 33.7744C86.9642 33.5684 87.1898 33.1612 87.1898 32.5529C87.1898 31.8955 86.9715 31.454 86.5349 31.2283C86.2896 31.1007 85.9217 31.037 85.4311 31.037H82.7966V33.951H85.3649C85.8751 33.951 86.2577 33.8922 86.5128 33.7744Z" fill="white"/>
</g>
</svg>
